<svg id="visual" viewBox="0 0 1152 864" width="1152" height="864" xmlns="http://www.w3.org/2000/svg"
	xmlns:xlink="http://www.w3.org/1999/xlink" version="1.1">
	<g transform="translate(420 400)">
		<path
			d="M298.4-349.5C389.8-344.2 469.3-261.3 443.2-181.7 417.2-102.2 285.6-26.1 222.4 42.5 159.1 111 164.2 172 138.5 204.8 112.9 237.7 56.4 242.3-35.3 290.9-127 339.4-253.9 431.8-325.6 413.9-397.2 396.1-413.5 267.9-412 160.4-410.5 52.8-391.2-34-354.1-104.9-317.1-175.7-262.3-230.7-200.3-245.5-138.3-260.4-69.2-235.2 17.1-258.8 103.5-282.4 206.9-354.8 298.4-349.5"
			fill="#ffefde"></path>
	</g>
</svg>